<svg width="56" height="56" viewBox="0 0 56 56" fill="none" xmlns="http://www.w3.org/2000/svg">
<path opacity="0.6" d="M22.8564 21.1376C22.2271 17.729 23.1411 14.3739 25.1223 11.8375C26.8223 9.61189 29.3122 7.99718 32.2779 7.44965C38.6523 6.27283 44.789 10.4968 45.9659 16.8712C46.9471 22.1863 44.1586 27.3611 39.5124 29.593C37.565 26.4874 34.2384 24.433 30.5365 24.1208C29.5238 24.0289 28.4782 24.0826 27.419 24.2781C26.3599 24.4737 25.3641 24.7969 24.451 25.2443C23.6892 24.0307 23.1337 22.6397 22.8564 21.1376Z" fill="#87DB1C"/>
<path d="M17.9975 37.9656C17.7202 36.4635 17.7424 34.9658 18.0206 33.5603C18.7308 29.9641 21.1046 26.8573 24.451 25.2438C25.3641 24.7964 26.3599 24.4732 27.4191 24.2777C28.4782 24.0821 29.5238 24.0285 30.5365 24.1203C34.2384 24.4326 37.565 26.487 39.5124 29.5925C40.2742 30.806 40.8297 32.1971 41.107 33.6992C42.2838 40.0735 38.0599 46.2103 31.6855 47.3871C25.3111 48.564 19.1744 44.34 17.9975 37.9656Z" fill="#87DB1C"/>
<path opacity="0.4" d="M7.45016 23.9822C6.27333 17.6078 10.4973 11.4711 16.8717 10.2942C19.8374 9.74672 22.7397 10.3659 25.1224 11.8378C23.1412 14.3742 22.2272 17.7293 22.8565 21.1379C23.1338 22.64 23.6893 24.031 24.451 25.2446C21.1046 26.8581 18.7309 29.9648 18.0207 33.561C12.8839 33.1353 8.43144 29.2974 7.45016 23.9822Z" fill="#87DB1C"/>
</svg>
